<svg width="40" height="40" viewBox="0 0 40 40" fill="none" xmlns="http://www.w3.org/2000/svg">
<ellipse cx="21.8134" cy="19.3765" rx="15.7753" ry="15.2" fill="white"/>
<path d="M29.6991 23.8021C22.4778 23.8375 21.3097 28.1876 20.9204 31.8657L20.7434 33.4926H19.292L19.115 31.8657C18.7257 28.1876 17.5222 23.8375 10.5487 23.8021C9.38054 21.397 8.88496 19.4518 8.88496 17.2591C8.88496 11.7773 13.3806 6.64899 20.0353 6.64899C26.6902 6.64899 31.115 11.7418 31.115 17.2946C31.115 19.4518 30.9026 21.397 29.6991 23.8021ZM19.9647 0C8.99125 0 0 8.98328 0 19.9822C0 31.0169 8.99125 40 19.9647 40C31.0442 40 40 31.0169 40 19.9822C40 8.98331 31.0442 0 19.9647 0Z" fill="#29B24A"/>
</svg>
