<svg width="41" height="41" viewBox="0 0 41 41" fill="none" xmlns="http://www.w3.org/2000/svg">
<path d="M40.36 20.625C40.36 19.195 40.2317 17.82 39.9933 16.5H21V24.31H31.8533C31.3767 26.8217 29.9467 28.9483 27.8017 30.3783V35.4567H34.3467C38.16 31.9367 40.36 26.7667 40.36 20.625Z" fill="#4285F4"/>
<path d="M21 40.3333C26.445 40.3333 31.01 38.5367 34.3466 35.4567L27.8016 30.3783C26.005 31.5883 23.7133 32.3217 21 32.3217C15.7566 32.3217 11.3016 28.7833 9.70664 24.0167H2.99664V29.2233C6.31498 35.805 13.1166 40.3333 21 40.3333Z" fill="#34A853"/>
<path d="M9.70665 23.9984C9.30331 22.7884 9.06498 21.505 9.06498 20.1667C9.06498 18.8284 9.30331 17.545 9.70665 16.335V11.1284H2.99665C1.62165 13.8417 0.833313 16.9034 0.833313 20.1667C0.833313 23.43 1.62165 26.4917 2.99665 29.205L8.22165 25.135L9.70665 23.9984Z" fill="#FBBC05"/>
<path d="M21 8.03C23.97 8.03 26.61 9.05667 28.7183 11.0367L34.4933 5.26167C30.9916 1.99833 26.445 0 21 0C13.1166 0 6.31498 4.52833 2.99664 11.1283L9.70664 16.335C11.3016 11.5683 15.7566 8.03 21 8.03Z" fill="#EA4335"/>
</svg>
