<svg xmlns="http://www.w3.org/2000/svg">
  <symbol id="test" width="100%" height="100%"
    viewBox="0 0 44 45" fill="none">
    <path
      d="M4.16523 24.2143C4.12781 19.6695 3.62627 15.2766 6.10399 11.3436C6.96482 9.97557 7.72087 8.44415 9.7719 8.75196C10.0975 8.80136 10.4905 8.55435 10.8161 8.37955C16.7709 5.17612 23.0176 5.34332 29.384 6.66194C31.6933 7.14074 33.5048 9.07496 36.0461 8.91156C36.3718 8.88876 36.7835 9.53096 37.0866 9.92237C38.9131 12.2784 39.9274 14.965 40.0247 17.9632C40.0921 19.9773 40.0359 21.9913 39.9124 24.0775C39.6317 22.7019 39.1002 21.3605 37.6967 21.1553C35.8178 20.8817 33.8304 20.5321 32.0264 21.4973C31.0121 22.0407 30.6828 23.0781 30.6865 24.2409C30.7052 28.1017 30.7052 31.9626 30.6865 35.8234C30.679 37.4688 31.4837 38.4796 33.0182 38.7798C33.7481 38.9204 34.0962 39.0648 34.0812 39.9084C34.0587 40.9762 33.3439 40.7862 32.7862 40.7254C31.7831 40.6152 30.4208 41.4132 30.1101 39.4448C29.9716 38.5632 23.2758 38.5556 22.6957 39.3612C22.2952 39.9198 22.3776 44.0847 22.8005 44.5407C23.3469 45.1297 29.8631 45.1905 29.9941 44.5217C30.4095 42.4241 31.9254 43.0777 33.1268 43.0549C36.1509 43.0017 36.1509 43.0359 36.3231 40.0034C36.3418 39.6918 36.3905 39.384 36.4279 39.0724C38.5987 39.3878 39.0815 36.4808 41.185 36.5492C42.8917 36.6024 43.8835 35.5688 43.9509 33.8664C44.0407 31.6548 43.9995 29.4355 43.9509 27.2239C43.9396 26.7413 43.8311 26.0421 43.513 25.8255C41.9635 24.7691 42.2479 23.2035 42.3228 21.7405C42.5997 16.447 41.7876 11.5146 38.0635 7.45994C37.94 7.32694 37.7716 7.14074 37.779 6.98874C37.9325 3.94111 35.6382 3.0101 33.5085 2.1893C25.9257 -0.729129 18.2717 -0.72533 10.6889 2.1741C8.57421 2.9835 6.2537 3.90311 6.39592 6.96594C6.40715 7.21294 6.09276 7.49794 5.89065 7.73355C2.88521 11.1916 1.70249 15.269 1.86718 19.8215C1.90834 20.9577 1.83723 22.1015 1.88589 23.2377C1.91957 24.1003 1.73992 24.7197 1.03254 25.3543C-0.221291 26.4791 -0.419659 34.9798 0.95768 35.6334C3.03117 36.6138 5.04104 37.6854 7.02471 38.8292C7.12202 38.8862 7.27173 38.852 7.39524 38.852C12.2309 38.8786 13.8029 39.3916 13.5109 33.0076C13.3799 30.1651 13.5072 27.3113 13.4847 24.4651C13.466 22.0559 12.433 21.0299 10.0526 20.9881C9.55482 20.9805 9.05703 20.9881 8.5555 20.9881C5.69228 20.9919 5.16455 21.3605 4.16898 24.2181L4.16523 24.2143ZM37.4272 29.8611C37.4272 31.062 37.4272 32.259 37.4272 33.4598C37.4272 36.8494 37.3262 36.9102 34.0026 36.5796C33.1829 36.4998 32.9396 36.1768 32.9434 35.4092C32.9621 31.746 32.9584 28.0865 32.9434 24.4233C32.9434 23.6405 33.2353 23.2377 34.04 23.2719C34.5977 23.2947 35.1629 23.3251 35.7168 23.2643C36.9781 23.1199 37.5358 23.5607 37.4497 24.9401C37.3486 26.5741 37.4272 28.2195 37.4272 29.8611ZM6.74775 30.0131C6.74775 28.6869 6.74775 27.3607 6.74775 26.0345C6.74775 23.2377 6.74775 23.3099 9.42383 23.2453C10.775 23.2111 11.299 23.5683 11.2578 25.0351C11.1605 28.3145 11.1717 31.6016 11.2578 34.881C11.2915 36.2072 10.8872 36.7468 9.57728 36.572C9.08698 36.5074 8.57796 36.515 8.08766 36.572C6.98354 36.6936 6.70283 36.154 6.73652 35.128C6.7964 33.4256 6.75149 31.7194 6.75149 30.0169L6.74775 30.0131ZM22.2166 3.47371C18.021 3.62571 13.7991 3.88411 10.004 6.16413C9.70453 6.34273 9.31903 6.74174 9.04206 6.31233C8.6865 5.76893 9.2816 5.57513 9.6147 5.34712C9.97775 5.10392 10.3595 4.88352 10.7525 4.69732C15.169 2.6377 19.8362 2.0867 24.6157 2.4743C28.1077 2.7593 31.5174 3.49271 34.5827 5.35852C34.9196 5.56373 35.5147 5.77273 35.1292 6.32373C34.8372 6.74174 34.4592 6.32753 34.1635 6.14893C30.4919 3.91831 26.4048 3.60671 22.2204 3.46991L22.2166 3.47371ZM39.6916 30.7048C39.6916 29.7547 39.7028 28.8085 39.6879 27.8585C39.6766 27.2543 39.875 26.9047 40.5337 26.9123C41.1401 26.9161 41.694 26.9731 41.6977 27.7673C41.709 29.6635 41.709 31.5636 41.6977 33.4598C41.6902 34.2654 41.1251 34.273 40.5225 34.292C39.8413 34.3148 39.6691 33.9728 39.6841 33.3648C39.7066 32.4794 39.6916 31.594 39.6916 30.7086V30.7048ZM2.46976 30.4958H2.46227C2.46227 29.6711 2.48099 28.8503 2.45853 28.0257C2.43608 27.2277 2.76544 26.8895 3.56639 26.8971C4.32618 26.9047 4.50583 27.2847 4.49834 27.9649C4.47588 29.7357 4.47214 31.5104 4.49834 33.2812C4.50957 33.988 4.29249 34.311 3.54394 34.2958C2.86649 34.2806 2.46976 34.0792 2.46976 33.342C2.46976 32.392 2.46976 31.442 2.46976 30.4919V30.4958ZM26.4572 41.0864C27.0111 41.3524 28.0067 40.6494 28.0404 41.8313C28.0815 43.1765 26.9812 42.5989 26.4048 42.5951C25.8246 42.5875 24.7093 43.1917 24.7542 41.8541C24.7991 40.5392 25.9182 41.4323 26.4572 41.0864Z"
      fill="currentColor" />
  </symbol>
</svg>