<svg width="42" height="42" viewBox="0 0 42 42" fill="none" xmlns="http://www.w3.org/2000/svg">
<path d="M1.07812 21C1.07812 9.954 10.0301 1 21.0781 1C32.1221 1 41.0781 9.954 41.0781 21C41.0781 32.046 32.1221 41 21.0781 41C10.0301 41 1.07812 32.046 1.07812 21Z" fill="#FC3F1D"/>
<path d="M23.6405 12.3321H21.7925C18.4045 12.3321 16.6225 14.0481 16.6225 16.5781C16.6225 19.4381 17.8545 20.7781 20.3845 22.4961L22.4745 23.9041L16.4685 32.8781H11.9805L17.3705 24.8501C14.2705 22.6281 12.5305 20.4701 12.5305 16.8201C12.5305 12.2441 15.7205 9.12012 21.7705 9.12012H27.7765V32.8561H23.6405V12.3321Z" fill="white"/>
</svg>
